<?xml version="1.0" encoding="utf-8"?>
<!-- Generator: Adobe Illustrator 16.0.0, SVG Export Plug-In . SVG Version: 6.00 Build 0)  -->
<!DOCTYPE svg PUBLIC "-//W3C//DTD SVG 1.1//EN" "http://www.w3.org/Graphics/SVG/1.1/DTD/svg11.dtd">
<svg version="1.1" xmlns="http://www.w3.org/2000/svg" xmlns:xlink="http://www.w3.org/1999/xlink" x="0px" y="0px" width="100px"
	 height="100px" viewBox="0 0 100 100" enable-background="new 0 0 100 100" xml:space="preserve">
<g id="레이어_1">
</g>
<g id="레이어_4">
</g>
<g id="레이어_3">
</g>
<g id="레이어_5">
</g>
<g id="레이어_6">
</g>
<g id="레이어_7">
</g>
<g id="레이어_8">
</g>
<g id="레이어_2">
</g>
<g id="레이어_11">
</g>
<g id="레이어_9">
	
		<path fill="#A8AD00" stroke="#424242" stroke-width="3" stroke-linecap="round" stroke-linejoin="round" stroke-miterlimit="10" d="
		M61.688,41.18c0.222-0.912,0.353-1.86,0.353-2.841c0-6.621-5.367-11.988-11.988-11.988s-11.989,5.367-11.989,11.988
		c0,0.98,0.131,1.929,0.353,2.841c-4.648,1.224-8.081,5.443-8.081,10.476c0,5.683,4.371,10.345,9.935,10.807
		c0.265,0.022,0.533,0.031,0.803,0.034L41.07,62.5h17.854c5.99,0,10.845-4.855,10.845-10.845
		C69.769,46.623,66.336,42.403,61.688,41.18z"/>
	<g>
		
			<line fill="none" stroke="#424242" stroke-width="3" stroke-linecap="round" stroke-linejoin="round" stroke-miterlimit="10" x1="46.688" y1="72.167" x2="54.604" y2="72.167"/>
		
			<line fill="none" stroke="#424242" stroke-width="3" stroke-linecap="round" stroke-linejoin="round" stroke-miterlimit="10" x1="46.087" y1="45.633" x2="50.583" y2="51.167"/>
		
			<polyline fill="none" stroke="#424242" stroke-width="3" stroke-linecap="round" stroke-linejoin="round" stroke-miterlimit="10" points="
			50.646,41.5 50.646,48.75 50.646,71.167 		"/>
		
			<line fill="none" stroke="#424242" stroke-width="3" stroke-linecap="round" stroke-linejoin="round" stroke-miterlimit="10" x1="56.576" y1="49.556" x2="51.159" y2="56.223"/>
	</g>
	
		<image display="none" overflow="visible" width="162" height="220" xlink:href="9E80E238.jpg"  transform="matrix(0.3091 0 0 0.3091 24.9653 7.502)">
	</image>
</g>
<g id="레이어_10">
</g>
</svg>
