<?xml version="1.0" encoding="utf-8"?>
<!-- Generator: Adobe Illustrator 16.0.0, SVG Export Plug-In . SVG Version: 6.00 Build 0)  -->
<!DOCTYPE svg PUBLIC "-//W3C//DTD SVG 1.1//EN" "http://www.w3.org/Graphics/SVG/1.1/DTD/svg11.dtd">
<svg version="1.1" xmlns="http://www.w3.org/2000/svg" xmlns:xlink="http://www.w3.org/1999/xlink" x="0px" y="0px" width="100px"
	 height="100px" viewBox="0 0 100 100" enable-background="new 0 0 100 100" xml:space="preserve">
<g id="레이어_1">
</g>
<g id="레이어_4">
</g>
<g id="레이어_3">
</g>
<g id="레이어_5">
</g>
<g id="레이어_6">
</g>
<g id="레이어_7">
</g>
<g id="레이어_8">
</g>
<g id="레이어_2">
	
		<image display="none" overflow="visible" width="564" height="747" xlink:href="8BE00B37.jpg"  transform="matrix(0.1032 0 0 0.1032 19.98 15.1826)">
	</image>
</g>
<g id="레이어_11">
	<path fill="none" stroke="#424242" stroke-width="3" stroke-linecap="round" stroke-linejoin="round" stroke-miterlimit="10" d="
		M48.194,37.03c0,0-0.583-7.467,6.816-7.193C55.01,29.837,55.935,37.715,48.194,37.03z"/>
	<path fill="none" stroke="#424242" stroke-width="3" stroke-linecap="round" stroke-linejoin="round" stroke-miterlimit="10" d="
		M47.841,41.205l-0.087,0.029l-0.087-0.029c-13.771-4.676-21.319,5.6-17.774,18.29s13.05,11.714,14.129,11.406
		c1.079-0.309,3.612-0.496,3.612-0.496l0,0c0.503,0.037,2.891,0.221,3.854,0.496c1.078,0.308,10.583,1.284,14.128-11.406
		C69.161,46.805,61.612,36.529,47.841,41.205z"/>
	
		<line display="none" fill="none" stroke="#424242" stroke-width="3" stroke-linecap="round" stroke-linejoin="round" stroke-miterlimit="10" x1="44.889" y1="33.167" x2="44.889" y2="42.875"/>
	<g>
		
			<path fill="#A8AD00" stroke="#424242" stroke-width="3" stroke-linecap="round" stroke-linejoin="round" stroke-miterlimit="10" d="
			M67.19,46.844l-0.002-0.002c-0.003,0-0.005,0.001-0.008,0.001s-0.005-0.001-0.008-0.001l-0.002,0.002
			c-9.04,0.26-9.121,8.793-8.903,10.366c0.222,1.6,1.364,3.779,1.364,3.779l5.999,10.889l0.001,0.03l0.716,1.271l0.824,1.494
			l0.009-0.017l0.01,0.017l0.823-1.494l0.717-1.271v-0.03l5.999-10.889c0,0,1.143-2.18,1.364-3.779
			C76.312,55.637,76.23,47.104,67.19,46.844z"/>
		
			<circle fill="#FFFFFF" stroke="#424242" stroke-width="3" stroke-linejoin="round" stroke-miterlimit="10" cx="67.181" cy="55.505" r="2.887"/>
	</g>
	<path fill="none" stroke="#424242" stroke-width="3" stroke-linecap="round" stroke-linejoin="round" stroke-miterlimit="10" d="
		M71.482,77.613c-2.376,2.376-6.228,2.376-8.604,0"/>
</g>
<g id="레이어_9">
</g>
<g id="레이어_10">
</g>
</svg>
